<?xml version="1.0" encoding="utf-8"?>
<!-- Generator: Adobe Illustrator 19.0.0, SVG Export Plug-In . SVG Version: 6.00 Build 0)  -->
<svg version="1.1" id="Vrstva_1" xmlns="http://www.w3.org/2000/svg" xmlns:xlink="http://www.w3.org/1999/xlink" x="0px" y="0px"
	 viewBox="0 0 1015.2 236.2" style="enable-background:new 0 0 1015.2 236.2;" xml:space="preserve">
<style type="text/css">
	.st0{fill:#E74600;}
	.st1{fill:#CC3000;}
	.st2{fill:#FF6102;}
	.st3{fill:#493A6D;}
</style>
<g id="Obdélník_1_kopie_3_2_">
	<g id="XMLID_42_">
		<path id="XMLID_3_" class="st0" d="M115.3,121.5c7.7,18.5,33.8,54.7,38.9,61c3.6,4.5,79.2,53.4,82.1,54.5V0.7"/>
	</g>
</g>
<g id="Obdélník_1_kopie_2_2_">
	<g id="XMLID_49_">
		<polygon id="XMLID_59_" class="st1" points="115.3,121.5 115.1,121.9 71.7,185.6 114.3,236.9 236.3,236.9 		"/>
	</g>
</g>
<g id="Obdélník_1_kopie_4_2_">
	<g id="XMLID_29_">
		<path id="XMLID_41_" class="st2" d="M43.9,155.4C14.1,185.1,0,236.9,0,236.9h115.3V121.5C115.3,121.5,71.7,127.6,43.9,155.4z"/>
	</g>
</g>
<g id="Obdélník_1_2_">
	<g id="XMLID_43_">
		<polygon id="XMLID_53_" class="st2" points="115.3,0.7 115.3,121.5 236.3,121.5 		"/>
	</g>
</g>
<g id="foxentry_kopie">
	<g id="XMLID_104_">
		<path id="XMLID_105_" class="st3" d="M368.1,97.9h-16.7V82.8c0-4.1,0.7-7.1,2.2-9.1c1.3-1.9,3.6-2.8,6.8-2.8
			c0.6,0,1.7,0.1,3.5,0.4c1.7,0.4,3.1,0.9,4.2,1.3V47.1c-1.5-0.4-4-0.8-7.5-1.4c-3.3-0.2-5.3-0.4-6.1-0.4c-12,0-21,2.8-26.9,8.3
			c-6,5.7-9,14-9,24.9v19.4h-14.3v23.6h14.3v71.1h32.8v-71.1h16.7V97.9z M473.5,145.5c0-6.9-1.3-13.5-4-19.6
			c-2.5-6.3-6.3-11.8-11.5-16.5c-4.9-4.8-10.6-8.4-17.1-11c-6.2-2.4-13-3.6-20.3-3.6c-7.4,0-14.2,1.2-20.3,3.6
			c-6.4,2.6-12.1,6.2-17.1,11c-5.1,4.8-8.8,10.3-11.3,16.5c-2.7,6.1-4,12.7-4,19.6c0,7.1,1.3,13.6,4,19.4
			c2.3,6.1,6.1,11.6,11.3,16.6c5.2,5,10.9,8.7,17.1,11.1c6.1,2.4,12.8,3.7,20.3,3.7c7.4,0,14.2-1.2,20.3-3.7
			c5.9-2.3,11.6-6,17.1-11.2c4.9-4.6,8.7-10.1,11.5-16.5C472.2,159,473.5,152.5,473.5,145.5z M435.2,162.1
			c-3.8,4.1-8.6,6.2-14.6,6.2c-6,0-10.9-2.1-14.6-6.2c-3.4-4-5.2-9.5-5.2-16.5c0-7.2,1.8-12.8,5.3-16.7c3.5-4.1,8.3-6.1,14.4-6.1
			c5.9,0,10.8,2,14.4,6.1c3.6,4.1,5.3,9.6,5.3,16.7C440.3,152.4,438.6,157.9,435.2,162.1z M567.6,97.9h-37.8l-9,16.1
			c-1.3,2.4-2.3,4.6-3.1,6.6c-0.8,2.4-1.3,4-1.5,4.8c-0.1-0.2-0.3-0.8-0.6-1.7c-0.3-0.9-0.7-1.9-1-3c-0.4-1.1-1.4-3.3-3.1-6.6
			l-8.8-16.1h-36.5l31.9,44l-37.2,50.7h37l14-23.8c1.2-1.8,2.1-3.7,2.7-5.5c0.5-1.1,1.2-3.1,2-5.8c0.3,0.9,0.6,2,0.9,3.1
			c0.3,1.1,0.6,2,0.8,2.7c1,2.3,2,4.1,2.9,5.5l14.2,23.8h37.7l-37.9-50.7L567.6,97.9z M650.2,109.6c-9.1-9.8-21.4-14.7-37-14.7
			c-15.3,0-27.9,4.8-37.9,14.5c-9.9,9.9-14.9,22.2-14.9,36.9c0,15.1,5,27.1,14.9,36.1c10,9.3,23.3,13.9,39.8,13.9
			c11.1,0,20.4-2,28-6c7.7-3.9,13-9.5,15.9-16.7l-25.1-10.1c-1.6,3.6-4.3,6.4-7.9,8.4c-3.6,1.9-7.8,2.9-12.8,2.9
			c-6.9,0-12.1-2-15.8-6c-3.5-3.9-5.3-9.5-5.5-16.9h72v-1.6c0-8.6-1.1-16.3-3.4-23C658.2,120.6,654.8,114.7,650.2,109.6z
			 M592.6,133.1c0.9-5.6,3-10.1,6.5-13.4c3.3-2.9,7.6-4.4,12.9-4.4c5.1,0,9.3,1.7,12.8,5c3.5,3.3,5.5,7.6,6.1,12.8H592.6z
			 M768.3,106.3c-2.9-3.6-6.8-6.5-11.6-8.6c-4.8-1.9-10.3-2.8-16.5-2.8c-8.2,0-15.1,1.8-20.9,5.3c-5.9,3.8-11.1,9.4-15.4,16.9V97.9
			h-30.6v94.7h32.8v-39.8c0-11.5,1.6-19.8,4.8-24.9c3.2-5.1,8.3-7.7,15.2-7.7c5.5,0,9.4,1.7,11.9,5.2c2.4,3.3,3.6,8.8,3.6,16.5v50.7
			h33.6v-54.2c0-8.5-0.5-15.3-1.6-20.5C772.8,113.8,771,110,768.3,106.3z M827.4,69.7h-33.2v28.2h-14.2v23.6h14.2l0.2,71.1h33v-71.1
			h14V97.9h-14V69.7z M979.5,97.9l-13.4,34.2c-1.3,3.1-2.2,5.7-2.7,7.9c-0.8,2.5-1.3,4.9-1.7,7.1c-0.5-2.3-1.1-4.6-1.8-6.9
			c-0.5-2.3-1.4-4.9-2.7-8.1l-13.2-34.2h-11.3c-0.9-0.1-13.3-1.7-13.8-1.7c-0.6,0-1.2-0.1-1.9-0.1c-0.9-0.1-2.2-0.2-4-0.2
			c-8,0-14.8,2-20.5,6.1c-5.5,4-9.9,10.1-13.2,18.3V97.9h-31.5v94.7h33.2v-39.2c0-9.1,2.2-16.2,6.6-21.1c4.4-5,10.7-7.5,18.8-7.5
			c1.2,0,3.1,0,5.5,0.4c4.6,0.7,7.4,1.9,9.5,2.7l23.9,50.2l-27.4,58.1h37.1l60.4-138.3H979.5z"/>
	</g>
</g>
</svg>
